<svg width="177" height="35" viewBox="0 0 177 35" fill="none" xmlns="http://www.w3.org/2000/svg">
<path d="M0.981534 0.818181H8.81818L15.4659 17.0284H15.7727L22.4205 0.818181H30.2571V27H24.0952V10.9176H23.8778L17.5881 26.8338H13.6506L7.3608 10.8281H7.14347V27H0.981534V0.818181ZM39.7397 27.3324C38.4869 27.3324 37.3746 27.1236 36.4031 26.706C35.44 26.2798 34.6772 25.6406 34.1147 24.7884C33.5607 23.9276 33.2837 22.8494 33.2837 21.554C33.2837 20.4631 33.4755 19.5426 33.859 18.7926C34.2425 18.0426 34.771 17.4332 35.4442 16.9645C36.1175 16.4957 36.8931 16.142 37.771 15.9034C38.6488 15.6562 39.5863 15.4901 40.5835 15.4048C41.6999 15.3026 42.5991 15.196 43.2809 15.0852C43.9627 14.9659 44.457 14.7997 44.7639 14.5866C45.0792 14.3651 45.2369 14.054 45.2369 13.6534V13.5895C45.2369 12.9332 45.011 12.4261 44.5593 12.0682C44.1076 11.7102 43.4982 11.5312 42.7312 11.5312C41.9045 11.5312 41.2397 11.7102 40.7369 12.0682C40.234 12.4261 39.9144 12.9205 39.7781 13.5511L34.0124 13.3466C34.1829 12.1534 34.6218 11.0881 35.3292 10.1506C36.0451 9.20455 37.0252 8.46307 38.2695 7.92614C39.5224 7.38068 41.0266 7.10795 42.7823 7.10795C44.0352 7.10795 45.19 7.2571 46.2468 7.5554C47.3036 7.84517 48.2241 8.27131 49.0082 8.83381C49.7923 9.38778 50.3974 10.0696 50.8235 10.8793C51.2582 11.6889 51.4755 12.6136 51.4755 13.6534V27H45.5948V24.2642H45.4414C45.092 24.929 44.6445 25.4915 44.0991 25.9517C43.5621 26.4119 42.9272 26.7571 42.1942 26.9872C41.4698 27.2173 40.6516 27.3324 39.7397 27.3324ZM41.6701 23.2415C42.3434 23.2415 42.9485 23.1051 43.4854 22.8324C44.0309 22.5597 44.4656 22.1847 44.7894 21.7074C45.1133 21.2216 45.2752 20.6591 45.2752 20.0199V18.1534C45.0962 18.2472 44.8789 18.3324 44.6232 18.4091C44.3761 18.4858 44.1033 18.5582 43.805 18.6264C43.5067 18.6946 43.1999 18.7543 42.8846 18.8054C42.5692 18.8565 42.2667 18.9034 41.9769 18.946C41.3888 19.0398 40.886 19.1847 40.4684 19.3807C40.0593 19.5767 39.744 19.8324 39.5224 20.1477C39.3093 20.4545 39.2028 20.821 39.2028 21.2472C39.2028 21.8949 39.4329 22.3892 39.8931 22.7301C40.3619 23.071 40.9542 23.2415 41.6701 23.2415ZM66.3817 7.36364V11.9659H53.994V7.36364H66.3817ZM56.5891 2.65909H62.8406V20.8253C62.8406 21.2088 62.9002 21.5199 63.0195 21.7585C63.1474 21.9886 63.3306 22.1548 63.5692 22.2571C63.8079 22.3509 64.0934 22.3977 64.4258 22.3977C64.6644 22.3977 64.9158 22.3764 65.18 22.3338C65.4528 22.2827 65.6573 22.2401 65.7937 22.206L66.7397 26.7188C66.4414 26.804 66.0195 26.9105 65.4741 27.0384C64.9371 27.1662 64.2937 27.2472 63.5437 27.2812C62.0778 27.3494 60.8207 27.179 59.7724 26.7699C58.7326 26.3523 57.9357 25.7045 57.3817 24.8267C56.8363 23.9489 56.5721 22.8452 56.5891 21.5156V2.65909ZM76.2447 15.8011V27H69.9933V0.818181H76.0401V10.9688H76.2575C76.7006 9.75852 77.4251 8.8125 78.4308 8.13068C79.445 7.44886 80.685 7.10795 82.1509 7.10795C83.5316 7.10795 84.7333 7.41477 85.756 8.02841C86.7788 8.63352 87.5714 9.49006 88.1339 10.598C88.7049 11.706 88.9862 13.0014 88.9776 14.4844V27H82.7262V15.7116C82.7347 14.6207 82.462 13.7685 81.908 13.1548C81.354 12.5412 80.5742 12.2344 79.5685 12.2344C78.9123 12.2344 78.3327 12.3793 77.8299 12.669C77.3356 12.9503 76.9478 13.3551 76.6665 13.8835C76.3938 14.4119 76.2532 15.0511 76.2447 15.8011ZM90.3711 5.95739V0.818181H112.5V5.95739H104.561V27H98.3228V5.95739H90.3711ZM117.163 34.3636C116.413 34.3636 115.706 34.304 115.041 34.1847C114.376 34.0739 113.805 33.9247 113.328 33.7372L114.709 29.1989C115.322 29.4034 115.876 29.5227 116.371 29.5568C116.874 29.5909 117.304 29.5099 117.662 29.3139C118.028 29.1264 118.31 28.7898 118.506 28.304L118.749 27.7159L111.768 7.36364H118.314L121.932 21.375H122.136L125.805 7.36364H132.389L124.987 28.8793C124.629 29.9531 124.122 30.8991 123.466 31.7173C122.818 32.544 121.979 33.1918 120.947 33.6605C119.925 34.1293 118.663 34.3636 117.163 34.3636ZM134.786 34.3636V7.36364H140.974V10.7259H141.165C141.421 10.1293 141.783 9.55398 142.252 9C142.729 8.44602 143.335 7.99432 144.067 7.64489C144.809 7.28693 145.695 7.10795 146.727 7.10795C148.09 7.10795 149.364 7.46591 150.549 8.18182C151.742 8.89773 152.705 10.0014 153.438 11.4929C154.171 12.9844 154.538 14.8849 154.538 17.1946C154.538 19.419 154.184 21.2812 153.477 22.7812C152.778 24.2812 151.832 25.4062 150.638 26.1562C149.454 26.9062 148.137 27.2812 146.688 27.2812C145.7 27.2812 144.843 27.1193 144.119 26.7955C143.394 26.4716 142.785 26.0455 142.29 25.517C141.805 24.9886 141.43 24.4219 141.165 23.8168H141.038V34.3636H134.786ZM140.91 17.1818C140.91 18.2386 141.05 19.1591 141.332 19.9432C141.621 20.7273 142.035 21.3366 142.572 21.7713C143.117 22.1974 143.769 22.4105 144.528 22.4105C145.295 22.4105 145.947 22.1974 146.484 21.7713C147.021 21.3366 147.425 20.7273 147.698 19.9432C147.979 19.1591 148.12 18.2386 148.12 17.1818C148.12 16.125 147.979 15.2088 147.698 14.4332C147.425 13.6577 147.021 13.0568 146.484 12.6307C145.955 12.2045 145.303 11.9915 144.528 11.9915C143.761 11.9915 143.109 12.2003 142.572 12.6179C142.035 13.0355 141.621 13.6321 141.332 14.4077C141.05 15.1832 140.91 16.108 140.91 17.1818ZM166.993 27.3707C164.939 27.3707 163.166 26.9659 161.674 26.1562C160.191 25.3381 159.049 24.1747 158.248 22.6662C157.456 21.1491 157.059 19.3466 157.059 17.2585C157.059 15.2301 157.46 13.4574 158.261 11.9403C159.062 10.4148 160.191 9.23011 161.649 8.38636C163.106 7.53409 164.824 7.10795 166.801 7.10795C168.199 7.10795 169.477 7.32528 170.636 7.75994C171.795 8.1946 172.797 8.83807 173.64 9.69034C174.484 10.5426 175.14 11.5952 175.609 12.848C176.078 14.0923 176.312 15.5199 176.312 17.1307V18.6903H159.245V15.0597H170.495C170.487 14.3949 170.329 13.8026 170.022 13.2827C169.716 12.7628 169.294 12.358 168.757 12.0682C168.228 11.7699 167.619 11.6207 166.929 11.6207C166.23 11.6207 165.603 11.7784 165.049 12.0938C164.495 12.4006 164.056 12.8224 163.733 13.3594C163.409 13.8878 163.238 14.4886 163.221 15.1619V18.8565C163.221 19.6577 163.379 20.3608 163.694 20.9659C164.01 21.5625 164.457 22.027 165.037 22.3594C165.616 22.6918 166.306 22.858 167.108 22.858C167.662 22.858 168.164 22.7812 168.616 22.6278C169.068 22.4744 169.456 22.2486 169.779 21.9503C170.103 21.652 170.346 21.2855 170.508 20.8509L176.248 21.017C176.01 22.304 175.485 23.4247 174.676 24.3793C173.875 25.3253 172.822 26.0625 171.518 26.5909C170.214 27.1108 168.706 27.3707 166.993 27.3707Z" fill="white"/>
</svg>
